<?xml version="1.0" encoding="UTF-8"?>
<svg version="1.1" xmlns="http://www.w3.org/2000/svg" width="24" height="24">
<path d="M0 0 C7.92 0 15.84 0 24 0 C24 7.92 24 15.84 24 24 C16.08 24 8.16 24 0 24 C0 16.08 0 8.16 0 0 Z " fill="#2A2126" transform="translate(0,0)"/>
<path d="M0 0 C3.0625 0.4375 3.0625 0.4375 5.4375 2.1875 C7.0625 4.4375 7.0625 4.4375 7.0625 8.4375 C6.4025 8.4375 5.7425 8.4375 5.0625 8.4375 C4.7325 10.0875 4.4025 11.7375 4.0625 13.4375 C6.7025 13.4375 9.3425 13.4375 12.0625 13.4375 C12.0625 14.7575 12.0625 16.0775 12.0625 17.4375 C4.1425 17.4375 -3.7775 17.4375 -11.9375 17.4375 C-11.9375 16.1175 -11.9375 14.7975 -11.9375 13.4375 C-7.9775 13.4375 -4.0175 13.4375 0.0625 13.4375 C0.0625 12.4475 0.0625 11.4575 0.0625 10.4375 C-0.5975 10.4375 -1.2575 10.4375 -1.9375 10.4375 C-3.0625 6.6875 -3.0625 6.6875 -1.9375 4.4375 C-3.2575 4.1075 -4.5775 3.7775 -5.9375 3.4375 C-4.06535559 0.94130746 -3.1479846 0.46884877 0 0 Z " fill="#DCB6AA" transform="translate(11.9375,6.5625)"/>
<path d="M0 0 C6.27 0 12.54 0 19 0 C19 5.28 19 10.56 19 16 C16.36 16 13.72 16 11 16 C11.33 14.35 11.66 12.7 12 11 C12.66 11 13.32 11 14 11 C13.34 8.69 12.68 6.38 12 4 C11.38511719 3.96261719 10.77023437 3.92523438 10.13671875 3.88671875 C9.32847656 3.82097656 8.52023437 3.75523438 7.6875 3.6875 C6.88699219 3.62949219 6.08648437 3.57148437 5.26171875 3.51171875 C3 3 3 3 0 0 Z " fill="#201416" transform="translate(5,4)"/>
<path d="M0 0 C7.92 0 15.84 0 24 0 C24 1.32 24 2.64 24 4 C16.08 4 8.16 4 0 4 C0 2.68 0 1.36 0 0 Z " fill="#FDFDFD" transform="translate(0,20)"/>
<path d="M0 0 C7.92 0 15.84 0 24 0 C24 1.32 24 2.64 24 4 C16.08 4 8.16 4 0 4 C0 2.68 0 1.36 0 0 Z " fill="#DFDFDF" transform="translate(0,0)"/>
<path d="M0 0 C3.82027063 0.39520041 5.45049064 2.28052335 8 5 C8.66 5.33 9.32 5.66 10 6 C10 6.66 10 7.32 10 8 C6.37 8 2.74 8 -1 8 C-1.04241723 5.66705225 -1.04092937 3.33297433 -1 1 C-0.67 0.67 -0.34 0.34 0 0 Z " fill="#221517" transform="translate(1,12)"/>
<path d="M0 0 C2.475 0.495 2.475 0.495 5 1 C6.10868317 4.32604951 6.54177532 7.53058454 7 11 C7.66 11 8.32 11 9 11 C9 11.66 9 12.32 9 13 C6.36 13 3.72 13 1 13 C1.33 11.35 1.66 9.7 2 8 C2.66 8 3.32 8 4 8 C3.40138258 5.64828869 2.73075648 3.3140622 2 1 C1.34 0.67 0.68 0.34 0 0 Z " fill="#3E2A2A" transform="translate(15,7)"/>
<path d="M0 0 C2.97 0.33 5.94 0.66 9 1 C10 5 10 5 9 7 C9.66 7 10.32 7 11 7 C10.67 7.99 10.34 8.98 10 10 C10 9.34 10 8.68 10 8 C9.236875 7.71125 8.47375 7.4225 7.6875 7.125 C5 6 5 6 2 4 C2.33 3.67 2.66 3.34 3 3 C1.68 3 0.36 3 -1 3 C-0.67 2.01 -0.34 1.02 0 0 Z " fill="#68504D" transform="translate(1,10)"/>
<path d="M0 0 C5.28 0 10.56 0 16 0 C15.67 0.99 15.34 1.98 15 3 C12.87561661 3.08078641 10.7503677 3.13909141 8.625 3.1875 C7.44164062 3.22230469 6.25828125 3.25710937 5.0390625 3.29296875 C3.53472656 3.14794922 3.53472656 3.14794922 2 3 C1.34 2.01 0.68 1.02 0 0 Z " fill="#939090" transform="translate(4,21)"/>
<path d="M0 0 C1.65 0 3.3 0 5 0 C5 1.32 5 2.64 5 4 C-0.94 4 -6.88 4 -13 4 C-13 3.67 -13 3.34 -13 3 C-11.39679026 2.80448662 -9.79237014 2.61888017 -8.1875 2.4375 C-7.29417969 2.33308594 -6.40085937 2.22867187 -5.48046875 2.12109375 C-3 2 -3 2 0 3 C0 2.01 0 1.02 0 0 Z " fill="#FFFFFF" transform="translate(19,0)"/>
<path d="M0 0 C1.98 0 3.96 0 6 0 C6 1.32 6 2.64 6 4 C5.34 4 4.68 4 4 4 C3.67 4.66 3.34 5.32 3 6 C0 2.25 0 2.25 0 0 Z " fill="#A98A83" transform="translate(13,11)"/>
<path d="M0 0 C2.64 0 5.28 0 8 0 C8 0.99 8 1.98 8 3 C5.36 3 2.72 3 0 3 C0 2.01 0 1.02 0 0 Z " fill="#B9B9B9" transform="translate(11,0)"/>
<path d="M0 0 C0.66 0.33 1.32 0.66 2 1 C2 1.66 2 2.32 2 3 C-1.3 3 -4.6 3 -8 3 C-8 2.34 -8 1.68 -8 1 C-5.26094655 -0.36952673 -3.02912668 -0.12621361 0 0 Z " fill="#C79585" transform="translate(15,7)"/>
<path d="M0 0 C1.98 0 3.96 0 6 0 C6 0.66 6 1.32 6 2 C7.32 2.33 8.64 2.66 10 3 C3.47692308 3.36923077 3.47692308 3.36923077 1.0625 1.5 C0.5365625 0.7575 0.5365625 0.7575 0 0 Z " fill="#271919" transform="translate(5,4)"/>
</svg>
