<?xml version="1.0" encoding="UTF-8"?>
<svg version="1.1" xmlns="http://www.w3.org/2000/svg" width="24" height="24">
<path d="M0 0 C7.92 0 15.84 0 24 0 C24 7.92 24 15.84 24 24 C16.08 24 8.16 24 0 24 C0 16.08 0 8.16 0 0 Z " fill="#3B2C22" transform="translate(0,0)"/>
<path d="M0 0 C5.28 0 10.56 0 16 0 C16.33 0.66 16.66 1.32 17 2 C15.35 2 13.7 2 12 2 C12 2.66 12 3.32 12 4 C13.32 4 14.64 4 16 4 C16 4.99 16 5.98 16 7 C16.66 7.33 17.32 7.66 18 8 C17.01 8 16.02 8 15 8 C15 7.01 15 6.02 15 5 C12.36 5 9.72 5 7 5 C7 5.99 7 6.98 7 8 C7.66 8 8.32 8 9 8 C9 8.99 9 9.98 9 11 C8.01 11 7.02 11 6 11 C6.37253906 11.51949219 6.74507813 12.03898438 7.12890625 12.57421875 C11.04116638 18.34133791 11.04116638 18.34133791 10.8125 22 C10.544375 22.66 10.27625 23.32 10 24 C6.7 24 3.4 24 0 24 C0 16.08 0 8.16 0 0 Z " fill="#544439" transform="translate(0,0)"/>
<path d="M0 0 C3.3 0 6.6 0 10 0 C9.19046875 0.65742188 8.3809375 1.31484375 7.546875 1.9921875 C4.41951936 5.68553696 4.25843989 8.49149912 4.25 13.125 C4.07049419 20.78851744 4.07049419 20.78851744 3 24 C2.01 24 1.02 24 0 24 C0 16.08 0 8.16 0 0 Z " fill="#BAB5B3" transform="translate(0,0)"/>
<path d="M0 0 C2.64 0 5.28 0 8 0 C8 0.99 8 1.98 8 3 C8.99 3 9.98 3 11 3 C10.93993922 4.45947705 10.8511311 5.91779272 10.75 7.375 C10.68039063 8.59316406 10.68039063 8.59316406 10.609375 9.8359375 C10 12 10 12 7.953125 13.2890625 C6.98632812 13.64097656 6.98632812 13.64097656 6 14 C5.67 12.35 5.34 10.7 5 9 C4.34 9 3.68 9 3 9 C3 8.01 3 7.02 3 6 C4.98 6 6.96 6 9 6 C9 5.34 9 4.68 9 4 C6.03 3.67 3.06 3.34 0 3 C0 2.01 0 1.02 0 0 Z " fill="#AE7851" transform="translate(7,5)"/>
<path d="M0 0 C2.31 0.33 4.62 0.66 7 1 C7 1.66 7 2.32 7 3 C5.02 3 3.04 3 1 3 C1 3.99 1 4.98 1 6 C1.66 6 2.32 6 3 6 C3.33 7.65 3.66 9.3 4 11 C4.99 10.67 5.98 10.34 7 10 C6.34 11.98 5.68 13.96 5 16 C3.68 16 2.36 16 1 16 C1.0825 15.29875 1.165 14.5975 1.25 13.875 C0.91961586 10.07558235 -0.81996447 8.06567497 -3 5 C-3 4.34 -3 3.68 -3 3 C-2.01 3 -1.02 3 0 3 C0 2.01 0 1.02 0 0 Z " fill="#845238" transform="translate(9,8)"/>
<path d="M0 0 C2.64 0 5.28 0 8 0 C8 6.6 8 13.2 8 20 C7.34 19.67 6.68 19.34 6 19 C5.76264123 17.37239698 5.53279848 15.74329404 5.34375 14.109375 C4.51510601 9.02451415 2.85105034 4.27657551 0 0 Z " fill="#BAB2AB" transform="translate(16,0)"/>
<path d="M0 0 C2.5625 2.1875 2.5625 2.1875 5 5 C4.8125 7.8125 4.8125 7.8125 4 10 C1.69 10 -0.62 10 -3 10 C-2.39009109 6.44219804 -1.4216319 3.3171411 0 0 Z " fill="#231916" transform="translate(6,14)"/>
<path d="M0 0 C0.33 0 0.66 0 1 0 C1.19551338 1.60320974 1.38111983 3.20762986 1.5625 4.8125 C1.66691406 5.70582031 1.77132813 6.59914063 1.87890625 7.51953125 C2 10 2 10 1 13 C0.01 13 -0.98 13 -2 13 C-2.16682272 8.07872966 -2.24828052 4.49656104 0 0 Z " fill="#C8BDA7" transform="translate(2,11)"/>
<path d="M0 0 C2.64 0 5.28 0 8 0 C8 0.99 8 1.98 8 3 C8.99 3 9.98 3 11 3 C10.67 3.99 10.34 4.98 10 6 C9.67 5.34 9.34 4.68 9 4 C6.87423218 3.53348793 6.87423218 3.53348793 4.4375 3.375 C3.61121094 3.30023438 2.78492188 3.22546875 1.93359375 3.1484375 C1.29550781 3.09945313 0.65742187 3.05046875 0 3 C0 2.01 0 1.02 0 0 Z " fill="#A36949" transform="translate(7,5)"/>
<path d="M0 0 C0.33 0.66 0.66 1.32 1 2 C-0.65 2 -2.3 2 -4 2 C-4 2.66 -4 3.32 -4 4 C-2.68 4 -1.36 4 0 4 C0 4.99 0 5.98 0 7 C0.66 7.33 1.32 7.66 2 8 C1.01 8 0.02 8 -1 8 C-1 7.01 -1 6.02 -1 5 C-2.98 5 -4.96 5 -7 5 C-7 4.34 -7 3.68 -7 3 C-7.66 2.67 -8.32 2.34 -9 2 C-5.5647952 -0.29013653 -4.014669 -0.17842973 0 0 Z " fill="#644D3E" transform="translate(16,0)"/>
<path d="M0 0 C3.69916393 2.46610929 3.77427118 3.71809718 4.8125 7.9375 C5.08707031 8.99839844 5.36164062 10.05929688 5.64453125 11.15234375 C6 14 6 14 4 17 C2.08621804 13.04485062 1.60707437 9.40297109 1.24609375 5.0859375 C1.04894966 2.80868682 1.04894966 2.80868682 0 0 Z " fill="#59483B" transform="translate(17,2)"/>
<path d="M0 0 C2.5625 2.1875 2.5625 2.1875 5 5 C4.8125 7.8125 4.8125 7.8125 4 10 C3.34 10 2.68 10 2 10 C0.875 6.25 0.875 6.25 2 4 C1.34 4 0.68 4 0 4 C0 2.68 0 1.36 0 0 Z " fill="#1E1310" transform="translate(6,14)"/>
<path d="M0 0 C0.33 0.66 0.66 1.32 1 2 C0.0625 4.125 0.0625 4.125 -1 6 C-2.32 6 -3.64 6 -5 6 C-4.67 4.35 -4.34 2.7 -4 1 C-2.68 0.67 -1.36 0.34 0 0 Z " fill="#683D28" transform="translate(15,18)"/>
<path d="M0 0 C0 0.99 0 1.98 0 3 C-0.66 3 -1.32 3 -2 3 C-2 3.99 -2 4.98 -2 6 C-1.34 6 -0.68 6 0 6 C-0.33 6.99 -0.66 7.98 -1 9 C-1 8.34 -1 7.68 -1 7 C-1.99 7.33 -2.98 7.66 -4 8 C-4 6.02 -4 4.04 -4 2 C-2.68 1.34 -1.36 0.68 0 0 Z " fill="#3A2B24" transform="translate(9,2)"/>
<path d="M0 0 C0.66 0 1.32 0 2 0 C1.67 2.31 1.34 4.62 1 7 C0.01 6.67 -0.98 6.34 -2 6 C-1.125 1.125 -1.125 1.125 0 0 Z " fill="#CBC7C6" transform="translate(3,3)"/>
<path d="M0 0 C1.32 0 2.64 0 4 0 C3.67 1.65 3.34 3.3 3 5 C2.01 5 1.02 5 0 5 C0 3.35 0 1.7 0 0 Z " fill="#7F705B" transform="translate(0,19)"/>
<path d="M0 0 C0.66 0 1.32 0 2 0 C2 1.98 2 3.96 2 6 C0.68 5.67 -0.64 5.34 -2 5 C-1.34 3.35 -0.68 1.7 0 0 Z " fill="#33241B" transform="translate(16,18)"/>
<path d="M0 0 C1.32 0.33 2.64 0.66 4 1 C4 2.98 4 4.96 4 7 C3.34 5.68 2.68 4.36 2 3 C1.34 4.32 0.68 5.64 0 7 C0 4.69 0 2.38 0 0 Z " fill="#AFA591" transform="translate(0,9)"/>
</svg>
