<?xml version="1.0" encoding="UTF-8"?>
<svg version="1.1" xmlns="http://www.w3.org/2000/svg" width="24" height="24">
<path d="M0 0 C7.92 0 15.84 0 24 0 C24 7.92 24 15.84 24 24 C16.08 24 8.16 24 0 24 C0 16.08 0 8.16 0 0 Z " fill="#55483E" transform="translate(0,0)"/>
<path d="M0 0 C7.92 0 15.84 0 24 0 C24 7.92 24 15.84 24 24 C21.69 24 19.38 24 17 24 C17.99 23.01 18.98 22.02 20 21 C20.99 21.33 21.98 21.66 23 22 C22.62930977 19.74572123 22.22742543 17.49655757 21.8125 15.25 C21.59207031 13.99703125 21.37164063 12.7440625 21.14453125 11.453125 C19.80557292 7.4134009 18.62648815 6.15059181 15 4 C12.58241784 3.32109939 12.58241784 3.32109939 10.1875 3.25 C9.39730469 3.19328125 8.60710938 3.1365625 7.79296875 3.078125 C7.20128906 3.05234375 6.60960937 3.0265625 6 3 C6 3.66 6 4.32 6 5 C4.68 5 3.36 5 2 5 C1.67 5.99 1.34 6.98 1 8 C0.67 8 0.34 8 0 8 C0 5.36 0 2.72 0 0 Z " fill="#C8B79C" transform="translate(0,0)"/>
<path d="M0 0 C0.33 1.32 0.66 2.64 1 4 C-0.32 4 -1.64 4 -3 4 C-3 4.99 -3 5.98 -3 7 C-1.68 7 -0.36 7 1 7 C1 7.99 1 8.98 1 10 C-0.32 10 -1.64 10 -3 10 C-4.15811388 12.94729537 -4.15811388 12.94729537 -4 16 C-5.875 15.8125 -5.875 15.8125 -8 15 C-10.28855988 11.10944821 -10.41067246 7.43526259 -10 3 C-7.7672032 -1.07157064 -4.21152194 -0.23838803 0 0 Z " fill="#B78B80" transform="translate(15,6)"/>
<path d="M0 0 C4.43087221 0.5063854 6.95723584 1.71052523 10 5 C11.63725264 9.51510392 12.30951208 14.20256272 12 19 C11.21625 19.144375 10.4325 19.28875 9.625 19.4375 C7.03578982 19.87798925 7.03578982 19.87798925 5 21 C5.01160156 19.94039062 5.02320313 18.88078125 5.03515625 17.7890625 C5.04453476 16.40104342 5.05363489 15.01302245 5.0625 13.625 C5.07087891 12.92632812 5.07925781 12.22765625 5.08789062 11.5078125 C5.1835442 7.62704624 5.1835442 7.62704624 4 4 C1.98330173 2.86649466 1.98330173 2.86649466 0 2 C0 1.34 0 0.68 0 0 Z " fill="#231B19" transform="translate(11,3)"/>
<path d="M0 0 C0.09038099 5.15171623 -0.15318867 9.91913204 -1 15 C-3.97 15 -6.94 15 -10 15 C-9.67 14.01 -9.34 13.02 -9 12 C-8.01 12.33 -7.02 12.66 -6 13 C-6 12.01 -6 11.02 -6 10 C-6.99 9.67 -7.98 9.34 -9 9 C-8.360625 8.71125 -7.72125 8.4225 -7.0625 8.125 C-4.84793921 7.17176549 -4.84793921 7.17176549 -4 5 C-3.01 5.66 -2.02 6.32 -1 7 C-1 6.01 -1 5.02 -1 4 C-2.32 4 -3.64 4 -5 4 C-5 3.01 -5 2.02 -5 1 C-1.125 0 -1.125 0 0 0 Z " fill="#6F4839" transform="translate(17,9)"/>
<path d="M0 0 C0.66 0 1.32 0 2 0 C2.50588147 1.91512272 3.00448391 3.83216922 3.5 5.75 C3.7784375 6.81734375 4.056875 7.8846875 4.34375 8.984375 C5 12 5 12 5 16 C3.125 15.75 3.125 15.75 1 15 C-1.00571762 11.91804365 -1.24648832 9.44296316 -1.1875 5.8125 C-1.18105469 4.93207031 -1.17460937 4.05164063 -1.16796875 3.14453125 C-1 1 -1 1 0 0 Z " fill="#2C2726" transform="translate(2,8)"/>
<path d="M0 0 C2.31 0 4.62 0 7 0 C7.33 1.32 7.66 2.64 8 4 C6.68 4 5.36 4 4 4 C4 4.99 4 5.98 4 7 C5.32 7 6.64 7 8 7 C8 7.99 8 8.98 8 10 C6.68 10 5.36 10 4 10 C3.34 9.01 2.68 8.02 2 7 C1.01 7 0.02 7 -1 7 C-1 6.01 -1 5.02 -1 4 C-0.34 4 0.32 4 1 4 C0.67 2.68 0.34 1.36 0 0 Z " fill="#A1705B" transform="translate(8,6)"/>
<path d="M0 0 C0.66 0 1.32 0 2 0 C2.33 1.32 2.66 2.64 3 4 C3.66 4 4.32 4 5 4 C5 5.32 5 6.64 5 8 C3.824375 8.2165625 3.824375 8.2165625 2.625 8.4375 C0.03578982 8.87798925 0.03578982 8.87798925 -2 10 C-2.25 3.375 -2.25 3.375 0 0 Z " fill="#1D1817" transform="translate(18,14)"/>
<path d="M0 0 C4.29 0 8.58 0 13 0 C12.67 0.66 12.34 1.32 12 2 C9.36 2 6.72 2 4 2 C3.71125 2.804375 3.4225 3.60875 3.125 4.4375 C2 7 2 7 0 8 C0 5.36 0 2.72 0 0 Z " fill="#DDD0B5" transform="translate(0,0)"/>
<path d="M0 0 C0.09765625 6.15234375 0.09765625 6.15234375 0 8 C-1 9 -1 9 -3.5625 9.0625 C-4.366875 9.041875 -5.17125 9.02125 -6 9 C-6.33 8.34 -6.66 7.68 -7 7 C-6.34 7 -5.68 7 -5 7 C-4.67 6.34 -4.34 5.68 -4 5 C-3.01 5.66 -2.02 6.32 -1 7 C-1 6.01 -1 5.02 -1 4 C-2.32 4 -3.64 4 -5 4 C-5 3.01 -5 2.02 -5 1 C-1.125 0 -1.125 0 0 0 Z " fill="#815746" transform="translate(17,9)"/>
<path d="M0 0 C4.40114397 0.50298788 6.71195019 2.08772731 10 5 C9.67 5.66 9.34 6.32 9 7 C7.0625 6.625 7.0625 6.625 5 6 C4.67 5.34 4.34 4.68 4 4 C1.98330173 2.86649466 1.98330173 2.86649466 0 2 C0 1.34 0 0.68 0 0 Z " fill="#312823" transform="translate(11,3)"/>
<path d="M0 0 C2.35333796 4.70667591 2.17102038 6.8693886 2 12 C-0.31 12 -2.62 12 -5 12 C-4.01 11.01 -3.02 10.02 -2 9 C-1.01 9.33 -0.02 9.66 1 10 C0.67 6.7 0.34 3.4 0 0 Z " fill="#847560" transform="translate(22,12)"/>
<path d="M0 0 C0.33 0 0.66 0 1 0 C1.12375 1.216875 1.2475 2.43375 1.375 3.6875 C1.78891306 7.06479059 2.54573451 9.89756695 4 13 C2.68 13 1.36 13 0 13 C0 8.71 0 4.42 0 0 Z " fill="#413831" transform="translate(0,11)"/>
<path d="M0 0 C0.66 0 1.32 0 2 0 C2.33 2.31 2.66 4.62 3 7 C1.68 6.67 0.36 6.34 -1 6 C-1.33 4.68 -1.66 3.36 -2 2 C-1.34 2 -0.68 2 0 2 C0 1.34 0 0.68 0 0 Z " fill="#A6776B" transform="translate(8,15)"/>
<path d="M0 0 C0.99 0 1.98 0 3 0 C3 0.99 3 1.98 3 3 C0 5 0 5 -4 5 C-3.67 4.01 -3.34 3.02 -3 2 C-2.01 2.33 -1.02 2.66 0 3 C0 2.01 0 1.02 0 0 Z " fill="#805444" transform="translate(11,19)"/>
<path d="M0 0 C0.99 0.33 1.98 0.66 3 1 C3 2.32 3 3.64 3 5 C1.68 4.67 0.36 4.34 -1 4 C-0.67 2.68 -0.34 1.36 0 0 Z " fill="#1C1919" transform="translate(4,19)"/>
</svg>
